<svg xmlns="http://www.w3.org/2000/svg" width="500" height="500"><path fill="#e6e4e4" d="m237.52-.238 2.692-.03C260.472-.444 280.075-.12 300 4l2.757.567C323.02 8.9 342.395 15.945 361 25l2.233 1.085c20.178 9.943 38.686 23.017 55.068 38.403A165 165 0 0 0 425 70.375c43.944 38.417 70.068 100.432 75 157.625.148 3.244.186 6.483.203 9.73l.021 2.742c.018 2.905.024 5.81.026 8.715l.002 3.004c-.015 14.148-.326 27.918-3.252 41.809l-.552 2.734c-1.323 6.464-2.826 12.87-4.448 19.266l-.553 2.227c-9.393 37.11-29.82 72.27-55.935 100.074a165 165 0 0 0-5.887 6.699C391.142 469.019 329.247 494.965 272 500c-3.173.157-6.343.21-9.52.238l-2.692.03c-20.26.176-39.863-.147-59.788-4.268l-2.757-.567C176.98 491.1 157.605 484.055 139 475l-2.233-1.085c-20.178-9.943-38.686-23.017-55.068-38.403A165 165 0 0 0 75 429.625C31.067 391.217 4.932 329.195 0 272c-.148-3.244-.186-6.483-.203-9.73l-.021-2.742c-.018-2.905-.024-5.81-.026-8.716l-.002-3.003C-.237 233.661.074 219.891 3 206l.552-2.734C4.875 196.802 6.378 190.396 8 184l.553-2.227c9.291-36.71 29.442-71.673 55.162-99.3 1.914-2.072 3.73-4.182 5.535-6.348C109.43 30.245 176.89.317 237.52-.238"/><path fill="#dc7804" d="M145.323 129.74c.931-.005 1.862-.008 2.82-.012 3.114-.01 6.227-.007 9.34-.003l6.703-.015c6.067-.014 12.133-.014 18.199-.012q7.596 0 15.194-.008 18.948-.016 37.896-.005c10.961.006 21.923-.006 32.884-.025q16.897-.03 33.793-.024 9.48.005 18.96-.014 8.918-.019 17.833.002 3.27.004 6.54-.009c2.98-.01 5.958-.002 8.938.01l2.605-.022c6.39.058 11.892 1.146 17.179 5.01l1.606 1.7 1.644 1.675c4.775 6.226 5.01 11.607 5.012 19.184l.023 3.265q.015 3.415.009 6.829c-.001 3.459.04 6.916.085 10.375q.008 3.327.008 6.656l.05 3.1c-.068 7.13-1.555 12.685-5.644 18.603-5.789 5.519-10.975 8.11-19 8l.003 1.896q.033 22.875.049 45.75.007 11.061.023 22.124.015 9.645.02 19.292 0 5.104.01 10.207.01 5.709.009 11.418l.01 3.387c-.015 12.13-.89 21.67-9.1 31.227-10.323 9.966-21.762 11.526-35.463 11.35-2.52-.026-5.035 0-7.555.033q-2.422-.006-4.846-.02l-2.26.03c-3.99-.089-5.712-.539-8.828-3.114-2.657-3.308-3.897-5.235-4.447-9.455.559-4.656 2.754-7.556 6.08-10.775 3.165-1.862 5.6-1.735 9.256-1.756l2.025-.033c2.13-.034 4.259-.05 6.389-.061q4.2-.024 8.398-.094l3.764-.021c3.839-.427 6.224-1.295 9.463-3.385 1.99-3.088 2.256-5.555 2.278-9.189l.034-3.171.007-3.477.03-3.726q.038-4.984.056-9.97c.014-3.118.039-6.238.063-9.357.063-9.12.109-18.24.157-27.36L334 214H166l.25 62.187.048 19.638c.033 5.808.033 5.808.072 11.616q.022 3.88.022 7.761c-.001 3.92.03 7.837.062 11.756l-.015 3.494c.056 6.156.056 6.156 2.408 11.738 3.802 3.196 7.22 2.943 12.016 2.986q2.064.034 4.127.072c2.16.035 4.318.064 6.478.078 2.09.015 4.18.056 6.27.1l3.783.044c4.83.736 7.783 3.004 11.354 6.217 1.802 3.704 1.78 7.283 1.125 11.313-2.139 3.59-4.119 5.539-8 7-2.757.216-5.41.328-8.168.336l-2.407.02q-2.52.015-5.04.015c-2.547.004-5.091.04-7.637.078-15.799.111-15.799.111-22.748-4.449l-2.637-1.605C152.003 360.26 148.3 355.91 145 350l-1.56-2.356c-2.134-5.399-1.833-10.504-1.78-16.259l-.002-3.845c0-3.466.017-6.933.038-10.4.019-3.627.02-7.254.024-10.882.01-6.863.034-13.726.064-20.59.034-7.816.05-15.632.065-23.448q.048-24.11.151-48.22l-1.875-.18-2.458-.25-2.437-.241c-5.317-.785-9.6-4.271-12.87-8.4-2.911-4.532-4.471-8.293-4.553-13.732l-.049-2.955c-.044-4.464-.085-8.927-.108-13.391q-.025-3.525-.082-7.05a858 858 0 0 1-.091-10.188l-.07-3.16c.024-7.956 2.153-12.604 7.402-18.476l1.629-1.352 1.62-1.398c5.493-3.47 10.997-3.515 17.265-3.488"/><path fill="#e6e4e4" d="M142 154h216v36H142z"/><path fill="#dc7804" d="M254 238c5.578 3.247 9.859 7.569 14.39 12.125l2.382 2.375q2.479 2.478 4.952 4.963c2.524 2.535 5.06 5.06 7.596 7.584q2.412 2.413 4.82 4.828l2.299 2.286 2.124 2.144 1.87 1.874c2.61 3.032 3.51 5.198 3.88 9.196-.406 4.698-1.552 8.067-5.141 11.242-3.191 2.032-5.57 2.284-9.313 2.195-5.55-1.577-9.432-6.121-13.32-10.207a301 301 0 0 0-4.718-4.792L263 281l-.018 2.997a8520 8520 0 0 1-.218 27.984 3833 3833 0 0 0-.11 14.387q-.04 6.945-.117 13.888-.025 2.648-.035 5.294c-.01 2.475-.037 4.95-.07 7.425l.005 2.202c-.086 4.66-1 7.855-3.437 11.823-3.644 3.216-7.154 3.523-11.848 3.352-3.316-.542-4.944-1.877-7.152-4.352-2.184-4.234-2.305-8.245-2.319-12.911l-.03-2.367c-.031-2.57-.048-5.14-.065-7.71q-.028-2.68-.059-5.36c-.051-4.693-.09-9.387-.128-14.08-.04-4.793-.091-9.586-.141-14.379Q237.114 295.097 237 281l-1.206 1.238a1777 1777 0 0 1-5.482 5.575l-1.896 1.947c-7.631 7.71-7.631 7.71-12.697 8.674-3.92.006-6.19-.13-9.656-2.122-3.141-3.521-3.929-6.08-4.438-10.75.81-7.692 7.268-12.748 12.5-17.953l2.375-2.38q2.478-2.48 4.963-4.953c2.535-2.524 5.06-5.06 7.584-7.596q2.413-2.412 4.828-4.82l2.286-2.299 2.144-2.124 1.874-1.87c4.075-3.507 8.503-4.684 13.821-3.567"/></svg>